<?xml version="1.0" encoding="UTF-8" standalone="no"?>
<svg
   xmlns:dc="http://purl.org/dc/elements/1.1/"
   xmlns:cc="http://creativecommons.org/ns#"
   xmlns:rdf="http://www.w3.org/1999/02/22-rdf-syntax-ns#"
   xmlns:svg="http://www.w3.org/2000/svg"
   xmlns="http://www.w3.org/2000/svg"
   xmlns:sodipodi="http://sodipodi.sourceforge.net/DTD/sodipodi-0.dtd"
   xmlns:inkscape="http://www.inkscape.org/namespaces/inkscape"
   version="1.1"
   id="Layer_1"
   x="0px"
   y="0px"
   viewBox="0 0 750 630.5"
   style="enable-background:new 0 0 750 630.5;"
   xml:space="preserve"
   sodipodi:docname="base-white.svg"
   inkscape:version="1.0.2 (e86c870879, 2021-01-15, custom)"><metadata
   id="metadata258"><rdf:RDF><cc:Work
       rdf:about=""><dc:format>image/svg+xml</dc:format><dc:type
         rdf:resource="http://purl.org/dc/dcmitype/StillImage" /><dc:title></dc:title></cc:Work></rdf:RDF></metadata><defs
   id="defs256" /><sodipodi:namedview
   pagecolor="#ffffff"
   bordercolor="#666666"
   borderopacity="1"
   objecttolerance="10"
   gridtolerance="10"
   guidetolerance="10"
   inkscape:pageopacity="0"
   inkscape:pageshadow="2"
   inkscape:window-width="725"
   inkscape:window-height="480"
   id="namedview254"
   showgrid="false"
   inkscape:zoom="1.3164155"
   inkscape:cx="375"
   inkscape:cy="315.25"
   inkscape:window-x="0"
   inkscape:window-y="0"
   inkscape:window-maximized="0"
   inkscape:current-layer="Layer_1" />
<style
   type="text/css"
   id="style2">
	.st0{fill:#E6E6E6;}
	.st1{fill:#333333;stroke:#56CEEB;stroke-width:5;stroke-miterlimit:10;}
	.st2{fill:#57B8CF;}
	.st3{fill:#56CEEB;}
	.st4{display:none;}
	.st5{display:inline;}
	.st6{fill:#141414;}
	.st7{fill:#FF0000;}
	.st8{fill:#120B0B;}
	.st9{fill:#242424;}
	.st10{fill:#292929;}
	.st11{fill:#191919;}
	.st12{fill:#1C1C1C;}
	.st13{fill:#171717;}
	.st14{fill:#0F0F0F;}
	.st15{fill:#1A1A1A;}
	.st16{display:inline;fill:#242424;}
	.st17{display:inline;fill:#1C1C1C;}
	.st18{fill:#EBEBEB;}
	.st19{fill:#EDF4F4;}
	.st20{fill:#DBDBDB;}
	.st21{fill:#E3E3E3;}
	.st22{fill:#D6D6D6;}
	.st23{display:inline;fill:#0F0F0F;}
	.st24{fill:#E8E8E8;}
	.st25{fill:#F0F0F0;}
	.st26{fill:#E5E5E5;}
	.st27{fill:#0A0A0A;stroke:#000000;stroke-miterlimit:10;}
	.st28{display:inline;fill:#F5F5F5;stroke:#FFFFFF;stroke-miterlimit:10;}
	.st29{fill:#929493;}
	.st30{fill:#57B8CF;stroke:#57B8CF;stroke-width:2;stroke-miterlimit:10;}
	.st31{stroke:#120B0B;stroke-width:2;stroke-miterlimit:10;}
	.st32{fill:#0A0A0A;}
</style>
<g
   id="Layer_1_1_">
	<g
   id="g249">
		<path
   class="st0"
   d="M664.4,214c-6.7-16.7-20.5-20.9-21.8-22c-11.7-10.3-2.5-21.2-19.9-30.7c-18.3-9.9-72-37-114.2-31.4    c-9.2,1.2-27.8,17.6-41.2,17.6c-21.9,0-92.2,0-92.2,0s-70.3,0-92.2,0c-13.4,0-32-16.4-41.2-17.6c-42.2-5.6-95.9,21.5-114.2,31.4    c-17.5,9.5-8.2,20.4-19.9,30.7c-1.3,1.1-15.1,5.3-21.8,22C22.9,370-1.7,469.1,0.1,529.1C3,623.5,76.7,630.5,76.7,630.5    c37-8.6,111.6-129.1,168.5-129.1c31.2,0,129.8,0,129.8,0s98.6,0,129.8,0c57,0,131.5,120.5,168.5,129.1c0,0,73.7-6.9,76.6-101.3    C751.8,469.1,727.1,370,664.4,214z"
   id="path4" />
		<g
   id="g8">
			<path
   class="st1"
   d="M664.4,215c-3.3-8.3-8.4-13.5-12.9-16.8c-3-2.2-5.7-3.6-7.4-4.4c-0.8-0.4-1.3-0.6-1.5-0.8     c-33.6-18-97.5-38.2-117.5-34.3c-26,5-65.5,79.7-89,79.7c-15.1,0-60.5,0-60.5,0s-45.4,0-60.5,0c-23.4,0-63-74.7-89-79.7     c-19.6-3.8-85.6,16.5-118.7,34.3c-0.2,0.2-0.6,0.4-1.2,0.6c-1.8,0.8-5.1,2.4-8.7,5.3c-4.2,3.3-8.8,8.4-11.9,16.1     C22.9,371-1.7,470.1,0.1,530.1C3,624.5,76.7,631.5,76.7,631.5c37-8.6,111.6-129.1,168.5-129.1c31.2,0,129.8,0,129.8,0     s98.6,0,129.8,0c57,0,131.5,120.5,168.5,129.1c0,0,73.7-6.9,76.6-101.3C751.8,470.1,727.1,371,664.4,215z"
   id="path6" />
		</g>
		<g
   id="Dpad_7_">
			<g
   id="g16">
				<path
   class="st2"
   d="M277.7,462.1c-33.4,0-60.6-27.2-60.6-60.6s27.2-60.6,60.6-60.6s60.6,27.2,60.6,60.6      C338.3,434.9,311.1,462.1,277.7,462.1z"
   id="path10" />
				<g
   id="g14">
					<path
   class="st3"
   d="M277.7,341.9c32.9,0,59.6,26.7,59.6,59.6s-26.7,59.6-59.6,59.6s-59.6-26.7-59.6-59.6       C218,368.6,244.8,341.9,277.7,341.9 M277.7,339.9c-34,0-61.6,27.6-61.6,61.6s27.6,61.6,61.6,61.6s61.6-27.6,61.6-61.6       C339.3,367.4,311.7,339.9,277.7,339.9L277.7,339.9z"
   id="path12" />
				</g>
			</g>
			<g
   class="st4"
   id="g26">
				<g
   class="st5"
   id="g20">
					<path
   class="st6"
   d="M291.2,353.5L291.2,353.5c0-5-27.1-5-27.1,0c0,23.8,0,96,0,96l0,0l0,0c0,5,27.1,5,27.1,0       C291.2,425.6,291.2,353.5,291.2,353.5L291.2,353.5z"
   id="path18" />
				</g>
				<g
   class="st5"
   id="g24">
					<path
   class="st6"
   d="M229.7,387.9L229.7,387.9c-5,0-5,27.1,0,27.1c23.9,0,96,0,96,0l0,0l0,0c5,0,5-27.1,0-27.1       C301.8,387.9,229.7,387.9,229.7,387.9L229.7,387.9z"
   id="path22" />
				</g>
			</g>
			<g
   class="st4"
   id="g32">
				<g
   class="st5"
   id="g30">
					<path
   class="st7"
   d="M277.7,349.8c6.8,0,13.6,1.2,13.6,3.7l0,0l0,0c0,0,0,15.4,0,34.4c13.8,0,26.7,0,34.4,0c5,0,5,27.1,0,27.1       l0,0l0,0c0,0-15.5,0-34.4,0c0,13.8,0,26.7,0,34.4c0,2.5-6.8,3.7-13.6,3.7c-6.8,0-13.6-1.2-13.6-3.7l0,0l0,0c0,0,0-15.4,0-34.4       c-13.8,0-26.7,0-34.4,0c-5,0-5-27.1,0-27.1l0,0c0,0,15.5,0,34.4,0c0-13.8,0-26.7,0-34.4C264.1,351,270.9,349.8,277.7,349.8        M277.7,346.2c-3.8,0-7.5,0.4-10.2,1c-5.8,1.4-7,4.2-7,6.3v30.8h-30.8c-2.1,0-4.9,1.2-6.3,7c-0.7,2.7-1,6.4-1,10.2       c0,3.8,0.4,7.4,1,10.2c1.4,5.8,4.2,7,6.3,7h30.8v30.8v0.8l0.1,0.2c0.4,1.9,2.1,4,6.9,5.2c2.7,0.7,6.3,1,10.2,1       c3.8,0,7.4-0.4,10.2-1c5.8-1.4,7-4.2,7-6.3v-30.8h30.8h1.5l0.3-0.3c1.7-0.7,3.4-2.5,4.5-6.6c0.7-2.7,1-6.4,1-10.2       c0-3.8-0.4-7.4-1-10.2c-1.4-5.8-4.2-7-6.3-7h-30.8v-30.8c0-2.1-1.2-4.9-7-6.3C285.1,346.5,281.5,346.2,277.7,346.2L277.7,346.2       z"
   id="path28" />
				</g>
			</g>
			<g
   id="g64">
				<g
   id="g38">
					<path
   class="st6"
   d="M277.7,452.7c-7.1,0-12.7-1.3-13-3.1v-0.1c0-0.1,0-15.5,0-34.4c0-0.3-0.2-0.5-0.5-0.5h-34.4       c-1.8,0-3.2-5.7-3.2-13.1s1.4-13.1,3.2-13.1h34.4c0.3,0,0.5-0.2,0.5-0.5v-34.4v-0.1l0.1-0.2l0.1-0.1c0.5-0.8,2.1-1.5,4.5-2       c0.3-0.1,0.6-0.1,0.9-0.2c0.4-0.1,0.7-0.1,1-0.1c0,0,0.1,0,0.2,0c0.3,0,0.6-0.1,0.9-0.1s0.7-0.1,1-0.1c0.4,0,0.7-0.1,1-0.1       l2.4-0.1c0.4,0,0.7,0,1,0c7.3,0,13.1,1.4,13.1,3.2c0,0.2,0,16,0,34.4c0,0.3,0.2,0.5,0.5,0.5h34.4c1.8,0,3.2,5.7,3.2,13.1       s-1.4,13.1-3.2,13.1h-34.4c-0.3,0-0.5,0.2-0.5,0.5v34.4c0,0,0,0.1,0,0.2C290.4,451.4,284.8,452.7,277.7,452.7z"
   id="path34" />
					<path
   class="st8"
   d="M277.7,350.8c8.1,0,12.6,1.6,12.6,2.7l0,0v34.4c0,0.6,0.4,1,1,1h34.4c1.1,0,2.7,4.8,2.7,12.6       c0,7.8-1.6,12.6-2.7,12.6h-34.4c-0.6,0-1,0.4-1,1v34.4c0,0,0,0,0,0.1c-0.2,1.1-4.7,2.7-12.6,2.7s-12.4-1.5-12.6-2.7v-0.1V415       c0-0.6-0.4-1-1-1h-34.4c-1.1,0-2.7-4.8-2.7-12.6s1.6-12.6,2.7-12.6h34.4c0.6,0,1-0.4,1-1v-34.4l0,0l0,0l0,0l0,0v-0.1       c0,0,0,0,0-0.1c0.2-0.2,0.9-1.1,4.2-1.8c0,0,0,0,0.1,0c0.3-0.1,0.6-0.1,0.8-0.2h0.1c0.3-0.1,0.6-0.1,0.8-0.1c0,0,0.1,0,0.2,0       c0.3,0,0.6-0.1,0.9-0.1l0,0c0.3,0,0.7-0.1,1-0.1l0,0l0,0c0.3,0,0.6-0.1,1-0.1h0.1c0.2,0,0.4,0,0.6,0h0.4c0.1,0,0.1,0,0.2,0       c0.3,0,0.7,0,1,0h0.1C277,350.8,277.3,350.8,277.7,350.8 M277.7,349.8c-0.4,0-0.7,0-1.1,0h-0.1c-0.3,0-0.7,0-1,0       c-0.1,0-0.1,0-0.2,0c-0.3,0-0.7,0-1,0h-0.1c-0.3,0-0.7,0-1,0.1l0,0c-0.3,0-0.7,0.1-1,0.1l0,0c-0.3,0-0.7,0.1-1,0.1       c0,0,0,0-0.1,0c-0.3,0-0.6,0.1-0.9,0.1c0,0,0,0-0.1,0c-0.3,0.1-0.6,0.1-0.9,0.2l0,0c-2.4,0.5-4.2,1.2-4.9,2.2       c0,0-0.1,0.1-0.1,0.2l0,0c0,0.1,0,0.1,0,0.2l0,0v0.1c0,0.1,0,0.1,0,0.2c0,7.7,0,20.6,0,34.4c-19,0-34.4,0-34.4,0l0,0       c-5,0-5,27.1,0,27.1c7.8,0,20.6,0,34.4,0c0,19,0,34.4,0,34.4l0,0c0,0.1,0,0.2,0,0.2c0.4,2.3,7,3.5,13.5,3.5       c6.6,0,13.1-1.2,13.5-3.5c0-0.1,0-0.2,0-0.2c0-7.7,0-20.6,0-34.4c19,0,34.4,0,34.4,0l0,0c5,0,5-27.1,0-27.1       c-7.8,0-20.6,0-34.4,0c0-19,0-34.4,0-34.4l0,0l0,0C291.2,351,284.4,349.8,277.7,349.8L277.7,349.8z"
   id="path36" />
				</g>
				<path
   class="st9"
   d="M264.1,387.9l-3.6-3.6h-30.8c-0.9,0-1.8,0.2-2.8,0.8l2.8,2.8C229.7,387.9,245.1,387.9,264.1,387.9z"
   id="path40" />
				<path
   class="st10"
   d="M229.7,387.9L229.7,387.9l-2.8-2.8c-1.4,0.9-2.7,2.7-3.5,6.1c-0.7,2.7-1,6.4-1,10.2c0,3.8,0.4,7.4,1,10.2      c0.8,3.4,2.2,5.2,3.5,6.1l2.8-2.8C224.7,415,224.7,387.9,229.7,387.9z"
   id="path42" />
				<path
   class="st9"
   d="M269.2,350.5L269.2,350.5c0.3-0.1,0.6-0.1,0.9-0.2c0,0,0,0,0.1,0c0.3-0.1,0.6-0.1,0.9-0.1c0,0,0,0,0.1,0      c0.3,0,0.7-0.1,1-0.1l0,0c0.3,0,0.7-0.1,1-0.1l0,0c0.3,0,0.7-0.1,1-0.1h0.1c0.3,0,0.6,0,1,0c0.1,0,0.1,0,0.2,0c0.3,0,0.7,0,1,0      h0.1c0.4,0,0.7,0,1.1,0c6.8,0,13.6,1.2,13.6,3.7l2.8-2.8c-0.9-1.4-2.7-2.7-6.1-3.5c-2.7-0.7-6.4-1-10.2-1c-3.8,0-7.5,0.4-10.2,1      c-2.9,0.7-4.7,1.8-5.7,3l2.6,2.6C265,351.7,266.8,351,269.2,350.5z"
   id="path44" />
				<path
   class="st11"
   d="M325.7,387.9l2.8-2.8c-0.9-0.6-1.9-0.8-2.8-0.8h-30.8l-3.6,3.6C305,387.9,317.9,387.9,325.7,387.9z"
   id="path46" />
				<path
   class="st12"
   d="M291.2,353.5L291.2,353.5c0,0,0,15.4,0,34.4l3.6-3.6l0,0v-30.8c0-0.9-0.2-1.8-0.8-2.8L291.2,353.5      L291.2,353.5z"
   id="path48" />
				<path
   class="st10"
   d="M264.1,353.5c0-0.1,0-0.1,0-0.2v-0.1l0,0c0-0.1,0-0.1,0-0.2l0,0c0-0.1,0.1-0.1,0.1-0.2l-2.6-2.6      c-1,1.1-1.3,2.3-1.3,3.3v30.8l3.6,3.6C264.1,374.1,264.1,361.3,264.1,353.5z"
   id="path50" />
				<path
   class="st13"
   d="M325.7,415L325.7,415c0,0-15.5,0-34.4,0l3.6,3.6h30.8h1.5l0.3-0.3c0.3-0.1,0.6-0.3,0.9-0.5L325.7,415      L325.7,415z"
   id="path52" />
				<path
   class="st14"
   d="M291.2,449.5l2.8,2.8c0.6-0.9,0.8-1.9,0.8-2.8v-30.8l-3.6-3.6C291.2,428.9,291.2,441.7,291.2,449.5z"
   id="path54" />
				<path
   class="st14"
   d="M332,391.3c-0.8-3.4-2.2-5.2-3.6-6.1l-2.8,2.8c5,0,5,27.1,0,27.1l2.8,2.8c1.4-0.9,2.7-2.7,3.5-6.1      c0.7-2.7,1-6.4,1-10.2C333,397.7,332.6,394,332,391.3z"
   id="path56" />
				<path
   class="st13"
   d="M291.2,449.7c-0.4,2.3-7,3.5-13.5,3.5s-13.1-1.2-13.5-3.5c0-0.1,0-0.2,0-0.2l-2.8,2.8      c0.9,1.4,2.7,2.7,6.2,3.5c2.7,0.7,6.3,1,10.2,1c3.8,0,7.4-0.4,10.2-1c3.4-0.8,5.2-2.2,6.1-3.5l-2.8-2.8      C291.2,449.5,291.2,449.6,291.2,449.7z"
   id="path58" />
				<path
   class="st12"
   d="M264.1,449.5L264.1,449.5c0,0,0-15.4,0-34.4l-3.6,3.6v30.8v0.8l0.1,0.2c0.1,0.5,0.3,1.1,0.7,1.7      L264.1,449.5L264.1,449.5z"
   id="path60" />
				<path
   class="st15"
   d="M229.7,415l-2.8,2.8c1,0.6,1.9,0.8,2.8,0.8h30.8l3.6-3.6C250.3,415,237.4,415,229.7,415z"
   id="path62" />
			</g>
			<g
   class="st4"
   id="g124">
				<path
   class="st16"
   d="M264.1,387.9l-3.6-3.6L264.1,387.9z"
   id="path66" />
				<polygon
   class="st17"
   points="291.2,387.9 294.8,384.3 294.8,384.3 294.8,384.3     "
   id="polygon68" />
				<g
   id="Up_7_"
   class="st5">
					<g
   id="g74">
						<path
   class="st18"
   d="M264.6,387.7v-34.2v-0.1l0.1-0.2l0.1-0.1c0.5-0.8,2.1-1.5,4.5-2c0.3-0.1,0.6-0.1,0.9-0.2        c0.4-0.1,0.7-0.1,1-0.1c0,0,0.1,0,0.2,0c0.3,0,0.6-0.1,0.9-0.1s0.7-0.1,1-0.1c0.4,0,0.7-0.1,1-0.1l2.4-0.1c0.4,0,0.7,0,1,0        c7.3,0,13.1,1.4,13.1,3.2c0,0.2,0,15.9,0,34.2l-13.1,13.1L264.6,387.7z"
   id="path70" />
						<path
   class="st19"
   d="M277.7,350.8c8.1,0,12.6,1.6,12.6,2.7l0,0v34l-12.6,12.6l-12.6-12.6v-34l0,0l0,0l0,0l0,0v-0.1        c0,0,0,0,0-0.1c0.2-0.2,0.9-1.1,4.2-1.8c0,0,0,0,0.1,0c0.3-0.1,0.6-0.1,0.8-0.2h0.1c0.3-0.1,0.6-0.1,0.8-0.1c0,0,0.1,0,0.2,0        c0.3,0,0.6-0.1,0.9-0.1l0,0c0.3,0,0.7-0.1,1-0.1l0,0l0,0c0.3,0,0.6-0.1,1-0.1h0.1c0.2,0,0.4,0,0.6,0h0.4c0.1,0,0.1,0,0.2,0        c0.3,0,0.7,0,1,0h0.1C277,350.8,277.3,350.8,277.7,350.8 M277.7,349.8c-0.4,0-0.7,0-1.1,0h-0.1c-0.3,0-0.7,0-1,0        c-0.1,0-0.1,0-0.2,0c-0.3,0-0.7,0-1,0h-0.1c-0.3,0-0.7,0-1,0.1l0,0c-0.3,0-0.7,0.1-1,0.1l0,0c-0.3,0-0.7,0.1-1,0.1        c0,0,0,0-0.1,0c-0.3,0-0.6,0.1-0.9,0.1c0,0,0,0-0.1,0c-0.3,0.1-0.6,0.1-0.9,0.2l0,0c-2.4,0.5-4.2,1.2-4.9,2.2        c0,0-0.1,0.1-0.1,0.2l0,0c0,0.1,0,0.1,0,0.2l0,0v0.1c0,0.1,0,0.1,0,0.2c0,7.7,0,20.6,0,34.4l13.6,13.6l13.6-13.6        c0-19,0-34.4,0-34.4l0,0l0,0C291.2,351,284.4,349.8,277.7,349.8L277.7,349.8z"
   id="path72" />
					</g>
					<path
   class="st20"
   d="M269.2,350.5L269.2,350.5c0.3-0.1,0.6-0.1,0.9-0.2c0,0,0,0,0.1,0c0.3-0.1,0.6-0.1,0.9-0.1c0,0,0,0,0.1,0       c0.3,0,0.7-0.1,1-0.1l0,0c0.3,0,0.7-0.1,1-0.1l0,0c0.3,0,0.7-0.1,1-0.1h0.1c0.3,0,0.6,0,1,0c0.1,0,0.1,0,0.2,0c0.3,0,0.7,0,1,0       h0.1c0.4,0,0.7,0,1.1,0c6.8,0,13.6,1.2,13.6,3.7l2.8-2.8c-0.9-1.4-2.7-2.7-6.1-3.5c-2.7-0.7-6.4-1-10.2-1       c-3.8,0-7.5,0.4-10.2,1c-2.9,0.7-4.7,1.8-5.7,3l2.6,2.6C265,351.7,266.8,351,269.2,350.5z"
   id="path76" />
					<path
   class="st21"
   d="M291.2,353.5L291.2,353.5c0,0,0,15.4,0,34.4l3.6-3.6v-30.8c0-0.9-0.2-1.8-0.8-2.8L291.2,353.5       L291.2,353.5z"
   id="path78" />
					<path
   class="st22"
   d="M264.1,353.5c0-0.1,0-0.1,0-0.2v-0.1l0,0c0-0.1,0-0.1,0-0.2l0,0c0-0.1,0.1-0.1,0.1-0.2l-2.6-2.6       c-1,1.1-1.3,2.3-1.3,3.3v30.8l3.6,3.6C264.1,374.1,264.1,361.3,264.1,353.5z"
   id="path80" />
				</g>
				<polygon
   class="st23"
   points="294.9,418.7 291.3,415.1 291.3,415.1     "
   id="polygon83" />
				<g
   id="Right_7_"
   class="st5">
					<g
   id="g89">
						<path
   class="st18"
   d="M291.4,414.5l-13.1-13.1l13.1-13.1h34.2c1.8,0,3.2,5.7,3.2,13.1s-1.4,13.1-3.2,13.1H291.4z"
   id="path85" />
						<path
   class="st19"
   d="M325.7,388.9c1.1,0,2.7,4.8,2.7,12.6c0,7.8-1.6,12.6-2.7,12.6h-34l-12.6-12.6l12.6-12.6H325.7         M325.7,387.9c-7.8,0-20.6,0-34.4,0l-13.6,13.6l13.6,13.6c19,0,34.4,0,34.4,0l0,0C330.6,415,330.6,387.9,325.7,387.9        L325.7,387.9z"
   id="path87" />
					</g>
					<path
   class="st0"
   d="M325.7,387.9l2.8-2.8c-0.9-0.6-1.9-0.8-2.8-0.8h-30.8l-3.6,3.6C305,387.9,317.9,387.9,325.7,387.9z"
   id="path91" />
					<path
   class="st24"
   d="M325.7,415L325.7,415c0,0-15.5,0-34.4,0l3.6,3.6h30.8h1.5l0.3-0.3c0.3-0.1,0.6-0.3,0.9-0.5L325.7,415       L325.7,415z"
   id="path93" />
					<path
   class="st25"
   d="M328.4,385.2l-2.8,2.8c5,0,5,27.1,0,27.1l2.8,2.8c1.4-0.9,2.7-2.7,3.5-6.1c0.7-2.7,1-6.4,1-10.2       c0-3.8-0.4-7.4-1-10.2C331.1,387.9,329.8,386.1,328.4,385.2z"
   id="path95" />
				</g>
				<g
   id="Down_7_"
   class="st5">
					<g
   id="g102">
						<path
   class="st18"
   d="M277.7,452.7c-7.1,0-12.7-1.3-13-3.1v-0.1c0-0.1,0-15.4,0-34.2l13.1-13.1l13.1,13.1v34.2        c0,0,0,0.1,0,0.2C290.4,451.4,284.8,452.7,277.7,452.7z"
   id="path98" />
						<path
   class="st19"
   d="M277.7,402.9l12.6,12.6v34c0,0,0,0,0,0.1c-0.2,1.1-4.7,2.7-12.6,2.7s-12.4-1.5-12.6-2.7v-0.1v-34        L277.7,402.9 M277.7,401.5L264.1,415c0,19,0,34.4,0,34.4l0,0c0,0.1,0,0.2,0,0.2c0.4,2.3,7,3.5,13.5,3.5        c6.6,0,13.1-1.2,13.5-3.5c0-0.1,0-0.2,0-0.2c0-7.7,0-20.6,0-34.4L277.7,401.5L277.7,401.5z"
   id="path100" />
					</g>
					<path
   class="st25"
   d="M291.2,449.5l2.8,2.8c0.6-0.9,0.8-1.9,0.8-2.8v-30.8l-3.6-3.6C291.2,428.9,291.2,441.7,291.2,449.5z"
   id="path104" />
					<path
   class="st24"
   d="M291.2,449.7c-0.4,2.3-7,3.5-13.5,3.5s-13.1-1.2-13.5-3.5c0-0.1,0-0.2,0-0.2l-2.8,2.8       c0.9,1.4,2.7,2.7,6.2,3.5c2.7,0.7,6.3,1,10.2,1c3.8,0,7.4-0.4,10.2-1c3.4-0.8,5.2-2.2,6.1-3.5l-2.8-2.8       C291.2,449.5,291.2,449.6,291.2,449.7z"
   id="path106" />
					<path
   class="st21"
   d="M264.1,449.5L264.1,449.5c0,0,0-15.4,0-34.4l-3.6,3.6v30.8v0.8l0.1,0.2c0.1,0.5,0.3,1.1,0.7,1.7       L264.1,449.5L264.1,449.5z"
   id="path108" />
				</g>
				<g
   id="left_7_"
   class="st5">
					<g
   id="g115">
						<path
   class="st18"
   d="M229.7,414.5c-1.8,0-3.2-5.7-3.2-13.1s1.4-13.1,3.2-13.1h34.2l13.1,13.1l-13.1,13.1H229.7z"
   id="path111" />
						<path
   class="st19"
   d="M263.7,388.9l12.6,12.6L263.7,414h-34c-1.1,0-2.7-4.8-2.7-12.6s1.6-12.6,2.7-12.6L263.7,388.9         M264.1,387.9c-19,0-34.4,0-34.4,0l0,0c-5,0-5,27.1,0,27.1c7.8,0,20.6,0,34.4,0l13.6-13.6L264.1,387.9L264.1,387.9z"
   id="path113" />
					</g>
					<path
   class="st20"
   d="M264.1,387.9l-3.6-3.6h-30.8c-0.9,0-1.8,0.2-2.8,0.8l2.8,2.8C229.7,387.9,245.1,387.9,264.1,387.9z"
   id="path117" />
					<path
   class="st22"
   d="M229.7,387.9L229.7,387.9l-2.8-2.8c-1.4,0.9-2.7,2.7-3.5,6.1c-0.7,2.7-1,6.4-1,10.2c0,3.8,0.4,7.4,1,10.2       c0.8,3.4,2.2,5.2,3.5,6.1l2.8-2.8C224.7,415,224.7,387.9,229.7,387.9z"
   id="path119" />
					<path
   class="st26"
   d="M229.7,415l-2.8,2.8c1,0.6,1.9,0.8,2.8,0.8h30.8l3.6-3.6C250.3,415,237.4,415,229.7,415z"
   id="path121" />
				</g>
			</g>
		</g>
		<g
   id="Menu_Key_7_">
			<g
   id="g129">
				<path
   class="st3"
   d="M448.9,280.4c0,10.4-8.4,18.8-18.8,18.8s-18.8-8.4-18.8-18.8s8.4-18.8,18.8-18.8S448.9,270,448.9,280.4z"
   id="path127" />
			</g>
			<g
   id="g141">
				<path
   class="st27"
   d="M446.2,280.4c0,8.9-7.2,16.1-16.1,16.1s-16.1-7.2-16.1-16.1s7.2-16.1,16.1-16.1S446.2,271.5,446.2,280.4z"
   id="path131" />
				<g
   id="g139">
					<rect
   x="422.9"
   y="275.7"
   class="st3"
   width="14.4"
   height="1.6"
   id="rect133" />
					<rect
   x="422.9"
   y="279.7"
   class="st3"
   width="14.4"
   height="1.6"
   id="rect135" />
					<rect
   x="422.9"
   y="283.5"
   class="st3"
   width="14.4"
   height="1.5"
   id="rect137" />
				</g>
			</g>
			<g
   id="Menu_Pressed_7_"
   class="st4">
				<path
   class="st28"
   d="M446.2,280.4c0,8.9-7.2,16.1-16.1,16.1s-16.1-7.2-16.1-16.1s7.2-16.1,16.1-16.1S446.2,271.5,446.2,280.4z"
   id="path143" />
				<g
   class="st5"
   id="g151">
					<rect
   x="422.9"
   y="275.7"
   class="st29"
   width="14.4"
   height="1.6"
   id="rect145" />
					<rect
   x="422.9"
   y="279.7"
   class="st29"
   width="14.4"
   height="1.6"
   id="rect147" />
					<rect
   x="422.9"
   y="283.5"
   class="st29"
   width="14.4"
   height="1.5"
   id="rect149" />
				</g>
			</g>
		</g>
		<g
   id="Switcher_Key_7_">
			<g
   id="g157">
				<path
   class="st3"
   d="M340.9,280.4c0,10.4-8.4,18.8-18.8,18.8s-18.8-8.4-18.8-18.8s8.4-18.8,18.8-18.8S340.9,270,340.9,280.4z"
   id="path155" />
			</g>
			<g
   id="g167">
				<path
   class="st27"
   d="M338.2,280.4c0,8.9-7.2,16.1-16.1,16.1s-16.1-7.2-16.1-16.1s7.2-16.1,16.1-16.1S338.2,271.5,338.2,280.4z"
   id="path159" />
				<g
   id="g165">
					<polygon
   class="st3"
   points="319.6,280.3 316.6,280.3 316.6,276.5 322,276.5 322,277.8 323.8,277.8 323.8,274.7 315,274.7        315,282.1 319.6,282.1      "
   id="polygon161" />
					<path
   class="st3"
   d="M320.4,278.4v7.6h9v-7.6H320.4z M327.5,284.2H322v-3.9h5.5V284.2z"
   id="path163" />
				</g>
			</g>
		</g>
		<g
   id="Left_Stick_7_">
			<g
   id="g172">
				<path
   class="st30"
   d="M185.5,351.5c-37.3,0-67.7-30.4-67.7-67.7s30.4-67.7,67.7-67.7s67.7,30.4,67.7,67.7      S222.8,351.5,185.5,351.5z"
   id="path170" />
			</g>
			<path
   class="st31"
   d="M241.6,279.9c0,31-25.1,56.1-56.1,56.1s-56.1-25.1-56.1-56.1s25.1-56.1,56.1-56.1     C216.5,223.8,241.6,248.9,241.6,279.9z"
   id="path174" />
		</g>
		<g
   id="Right_Stick_7_">
			<g
   id="g179">
				<path
   class="st30"
   d="M473,465.5c-37.3,0-67.7-30.4-67.7-67.7s30.4-67.7,67.7-67.7s67.7,30.4,67.7,67.7S510.4,465.5,473,465.5z"
   id="path177" />
			</g>
			<path
   class="st31"
   d="M529.2,393.8c0,31-25.1,56.1-56.1,56.1S417,424.8,417,393.8s25.1-56.1,56.1-56.1     C504,337.7,529.2,362.8,529.2,393.8z"
   id="path181" />
		</g>
		<g
   id="Button_Base_7_">
			<g
   id="A_7_">
				<path
   class="st32"
   d="M566.8,355.3c-13.9,0-25.2-11.3-25.2-25.2c0-13.9,11.3-25.2,25.2-25.2s25.2,11.3,25.2,25.2      S580.7,355.3,566.8,355.3z"
   id="path184" />
				<path
   class="st3"
   d="M566.8,306.4c13.1,0,23.7,10.6,23.7,23.7s-10.6,23.7-23.7,23.7c-13.1,0-23.7-10.6-23.7-23.7      S553.7,306.4,566.8,306.4 M566.8,303.4c-14.7,0-26.7,12-26.7,26.7s12,26.7,26.7,26.7s26.7-12,26.7-26.7S581.5,303.4,566.8,303.4      L566.8,303.4z"
   id="path186" />
			</g>
			<g
   id="Y_7_">
				<path
   class="st32"
   d="M566.8,254.2c-13.9,0-25.2-11.3-25.2-25.2s11.3-25.2,25.2-25.2S592,215.1,592,229S580.7,254.2,566.8,254.2      z"
   id="path189" />
				<path
   class="st3"
   d="M566.8,205.3c13.1,0,23.7,10.6,23.7,23.7c0,13.1-10.6,23.7-23.7,23.7c-13.1,0-23.7-10.6-23.7-23.7      C543.1,215.9,553.7,205.3,566.8,205.3 M566.8,202.3c-14.7,0-26.7,12-26.7,26.7s12,26.7,26.7,26.7s26.7-12,26.7-26.7      S581.5,202.3,566.8,202.3L566.8,202.3z"
   id="path191" />
			</g>
			<g
   id="B_7_">
				<path
   class="st32"
   d="M617.3,304.7c-13.9,0-25.2-11.3-25.2-25.2c0-13.9,11.3-25.2,25.2-25.2s25.2,11.3,25.2,25.2      S631.2,304.7,617.3,304.7z"
   id="path194" />
				<path
   class="st3"
   d="M617.3,255.8c13.1,0,23.7,10.6,23.7,23.7s-10.6,23.7-23.7,23.7c-13.1,0-23.7-10.6-23.7-23.7      S604.2,255.8,617.3,255.8 M617.3,252.8c-14.7,0-26.7,12-26.7,26.7s12,26.7,26.7,26.7s26.7-12,26.7-26.7S632,252.8,617.3,252.8      L617.3,252.8z"
   id="path196" />
			</g>
			<g
   id="X_7_">
				<path
   class="st32"
   d="M516.2,304.7c-13.9,0-25.2-11.3-25.2-25.2c0-13.9,11.3-25.2,25.2-25.2s25.2,11.3,25.2,25.2      S530.1,304.7,516.2,304.7z"
   id="path199" />
				<path
   class="st3"
   d="M516.2,255.8c13.1,0,23.7,10.6,23.7,23.7s-10.6,23.7-23.7,23.7c-13.1,0-23.7-10.6-23.7-23.7      S503.1,255.8,516.2,255.8 M516.2,252.8c-14.7,0-26.7,12-26.7,26.7s12,26.7,26.7,26.7s26.7-12,26.7-26.7S530.9,252.8,516.2,252.8      L516.2,252.8z"
   id="path201" />
			</g>
		</g>
		<g
   id="g233">
			<g
   id="g209">
				<path
   class="st15"
   d="M375.6,156.5c0,0-88.9-1.1-100.5-3L258.7,184c20.2,23.3,41.6,53.3,56.4,53.3c15.1,0,60.5,0,60.5,0      s45.4,0,60.5,0c14.9,0,36.2-30,56.5-53.3l-16.4-30.5C464.6,155.4,375.6,156.5,375.6,156.5z"
   id="path205" />
				<path
   class="st3"
   d="M476.2,153.5l-3.6-6.8c-1.9,0.5-3.7,0.7-5.4,0.7c-21.9,0-92.2,0-92.2,0s-70.3,0-92.2,0      c-1.4,0-2.8-0.2-4.3-0.5l-3.5,6.5c11.6,1.9,100.5,3,100.5,3S464.6,155.4,476.2,153.5z"
   id="path207" />
			</g>
			<g
   id="RB_8_">
				<path
   class="st15"
   d="M642.5,192c-9-7.9-5.6-16.2-11.5-23.8c0.2,0.3,0.5,0.7,0.7,1c0,0-96.5-42.1-120.8-34.5      c-15.6,4.9-27.2,15.3-32.8,18.2l15.9,29.6c11.2-12.7,21.9-23,31.1-24.8C545.1,153.8,609,174,642.5,192      C642.6,192,642.6,192,642.5,192z"
   id="path211" />
				<path
   class="st3"
   d="M511,134.6c24.3-7.6,120.8,34.5,120.8,34.5c-0.2-0.3-0.5-0.7-0.7-1L631,168c-0.1-0.1-0.2-0.2-0.3-0.4      c0-0.1-0.1-0.1-0.1-0.2c-0.1-0.1-0.2-0.2-0.3-0.3s-0.1-0.1-0.2-0.2c-0.1-0.1-0.2-0.2-0.3-0.3s-0.1-0.1-0.2-0.2      c-0.1-0.1-0.2-0.2-0.3-0.3s-0.1-0.1-0.2-0.2c-0.1-0.1-0.2-0.2-0.3-0.3s-0.2-0.1-0.2-0.2c-0.1-0.1-0.2-0.2-0.3-0.3      s-0.1-0.1-0.2-0.2c-0.1-0.1-0.2-0.2-0.3-0.3s-0.2-0.1-0.3-0.2c-0.1-0.1-0.2-0.2-0.3-0.3s-0.2-0.1-0.3-0.2      c-0.1-0.1-0.2-0.2-0.4-0.3c-0.1-0.1-0.2-0.1-0.3-0.2c-0.1-0.1-0.3-0.2-0.4-0.3c-0.1-0.1-0.2-0.1-0.3-0.2      c-0.1-0.1-0.3-0.2-0.4-0.3c-0.1-0.1-0.2-0.1-0.3-0.2c-0.2-0.1-0.3-0.2-0.5-0.3c-0.1-0.1-0.2-0.1-0.3-0.2      c-0.2-0.1-0.4-0.2-0.5-0.3s-0.2-0.1-0.3-0.2c-0.3-0.2-0.6-0.3-0.8-0.5c-18.3-9.9-72-37-114.2-31.4c-7.6,1-21.6,12.3-33.8,16.3      l3.6,6.7C483.7,149.9,495.4,139.5,511,134.6z"
   id="path213" />
			</g>
			<g
   id="LB_8_">
				<path
   class="st3"
   d="M241.6,129.9c-42.2-5.6-95.9,21.5-114.2,31.4c-0.3,0.2-0.6,0.3-0.8,0.5c-0.1,0.1-0.2,0.1-0.2,0.2      c-0.2,0.1-0.4,0.2-0.5,0.3s-0.2,0.1-0.3,0.2c-0.1,0.1-0.3,0.2-0.5,0.3c-0.1,0-0.2,0.1-0.3,0.2c-0.1,0.1-0.3,0.2-0.4,0.3      s-0.2,0.1-0.3,0.2c-0.1,0.1-0.3,0.2-0.4,0.3s-0.2,0.1-0.3,0.2c-0.1,0.1-0.3,0.2-0.4,0.3s-0.2,0.1-0.2,0.2      c-0.1,0.1-0.2,0.2-0.4,0.3c-0.1,0.1-0.1,0.1-0.2,0.2c-0.1,0.1-0.2,0.2-0.3,0.3c-0.1,0.1-0.1,0.1-0.2,0.2      c-0.1,0.1-0.2,0.2-0.3,0.3c-0.1,0.1-0.1,0.1-0.2,0.2c-0.1,0.1-0.2,0.2-0.3,0.3c-0.1,0-0.1,0.1-0.2,0.2c-0.1,0.1-0.2,0.2-0.3,0.3      c0,0.1-0.1,0.1-0.1,0.2c-0.1,0.1-0.2,0.2-0.3,0.3l-0.1,0.1c-0.1,0.1-0.2,0.3-0.3,0.4l-0.1,0.1c-0.1,0.1-0.2,0.3-0.3,0.4      c0,0,0,0.1-0.1,0.1c-0.1,0.1-0.2,0.3-0.3,0.4l0,0c-0.1,0.2-0.2,0.3-0.3,0.5c0,0,97.7-42,122-34.4c15.5,4.9,27.2,15.3,32.8,18.2      l3.4-6.3C264.1,142.9,249.5,130.9,241.6,129.9z"
   id="path216" />
				<g
   id="g224">
					<path
   class="st15"
   d="M273.6,153.1c0.2,0.1,0.3,0.1,0.5,0.2C273.9,153.2,273.7,153.2,273.6,153.1z"
   id="path218" />
					<path
   class="st15"
   d="M273.1,152.8c-5.6-2.9-17.3-13.4-32.8-18.2c-24.2-7.6-121.3,34.1-122,34.4c-5,7.4-2.2,15.3-10.8,23       c0,0,0,0-0.1,0c33.2-17.9,99.2-38.1,118.7-34.3c9.1,1.8,19.9,12.1,31.1,24.8L273.1,152.8L273.1,152.8z"
   id="path220" />
					<path
   d="M273.1,152.8c0.2,0.1,0.3,0.2,0.5,0.2C273.4,153,273.3,152.9,273.1,152.8z"
   id="path222" />
				</g>
				<path
   class="st3"
   d="M258,183.2c0.2,0.3,0.5,0.6,0.7,0.8l16.4-30.5l3.5-6.5c-0.3-0.1-0.7-0.1-1-0.2c-0.3-0.1-0.7-0.2-1-0.3      l-3.4,6.3l-15.9,29.6C257.5,182.7,257.7,183,258,183.2L258,183.2"
   id="path226" />
			</g>
			<path
   class="st3"
   d="M478.1,152.8l-3.6-6.7c-0.3,0.1-0.7,0.2-1,0.3s-0.7,0.2-1,0.3l3.6,6.8l16.4,30.5c0.2-0.3,0.5-0.5,0.7-0.8     s0.5-0.5,0.7-0.8L478.1,152.8z"
   id="path229" />
			<path
   class="st15"
   d="M356.9,169.3L356.9,169.3L356.9,169.3z"
   id="path231" />
		</g>
		<g
   id="g247">
			<g
   id="g239">
				<path
   class="st15"
   d="M549.1,5.5c-0.4-0.3-0.8-0.6-1.2-0.9l-2.3,110l53.3,7.2C586.7,5,555.8,10.8,549.1,5.5z"
   id="path235" />
				<path
   class="st6"
   d="M522,0.1c-10.8,0.4-12.1,11.4-12.2,15.2v1.2c0,0,2.9,40.7,0,93.1c9.9,2.3,38.5,5.3,38.5,5.3      s0-20.9,0.7-50.6c0.8-37.5-1.2-59.8-1.2-59.8C541.5,0.1,534.3-0.3,522,0.1z"
   id="path237" />
			</g>
			<g
   id="g245">
				<path
   class="st6"
   d="M228,0.1c10.8,0.4,12.1,11.4,12.2,15.2v1.2c0,0-2.9,40.7,0,93.1c-9.9,2.3-38.5,5.3-38.5,5.3      S201.6,94,201,64.4c-0.8-37.5,1.2-59.8,1.2-59.8C208.6,0.1,215.8-0.3,228,0.1z"
   id="path241" />
				<path
   class="st15"
   d="M201,5.5c0.4-0.3,0.8-0.6,1.2-0.9l2.3,110l-53.2,7.2C163.3,5,194.2,10.8,201,5.5z"
   id="path243" />
			</g>
		</g>
	</g>
</g>
<g
   id="Layer_2_1_">
</g>
</svg>
