<?xml version="1.0" encoding="UTF-8" standalone="no"?>
<svg
   xmlns:dc="http://purl.org/dc/elements/1.1/"
   xmlns:cc="http://creativecommons.org/ns#"
   xmlns:rdf="http://www.w3.org/1999/02/22-rdf-syntax-ns#"
   xmlns:svg="http://www.w3.org/2000/svg"
   xmlns="http://www.w3.org/2000/svg"
   xmlns:sodipodi="http://sodipodi.sourceforge.net/DTD/sodipodi-0.dtd"
   xmlns:inkscape="http://www.inkscape.org/namespaces/inkscape"
   version="1.1"
   id="Layer_1"
   x="0px"
   y="0px"
   viewBox="0 0 70.7 128"
   style="enable-background:new 0 0 70.7 128;"
   xml:space="preserve"
   sodipodi:docname="dpad.svg"
   inkscape:version="1.0.2 (e86c870879, 2021-01-15, custom)"><metadata
   id="metadata65"><rdf:RDF><cc:Work
       rdf:about=""><dc:format>image/svg+xml</dc:format><dc:type
         rdf:resource="http://purl.org/dc/dcmitype/StillImage" /><dc:title></dc:title></cc:Work></rdf:RDF></metadata><defs
   id="defs63" /><sodipodi:namedview
   pagecolor="#ffffff"
   bordercolor="#666666"
   borderopacity="1"
   objecttolerance="10"
   gridtolerance="10"
   guidetolerance="10"
   inkscape:pageopacity="0"
   inkscape:pageshadow="2"
   inkscape:window-width="725"
   inkscape:window-height="480"
   id="namedview61"
   showgrid="false"
   inkscape:zoom="6.484375"
   inkscape:cx="35.349998"
   inkscape:cy="64"
   inkscape:window-x="0"
   inkscape:window-y="0"
   inkscape:window-maximized="0"
   inkscape:current-layer="Layer_1" />
<style
   type="text/css"
   id="style2">
	.st0{fill:#EBEBEB;}
	.st1{fill:#EDF4F4;}
	.st2{fill:#DBDBDB;}
	.st3{fill:#E3E3E3;}
	.st4{fill:#D6D6D6;}
	.st5{fill:#F0F0F0;}
	.st6{fill:#E8E8E8;}
	.st7{fill:#E6E6E6;}
	.st8{fill:#E5E5E5;}
</style>
<g
   id="g30">
	<g
   id="Up">
		<g
   id="g8">
			<path
   class="st0"
   d="M40.4,41.6V7.3c0,0,0-0.1,0-0.1L40.5,7c0,0,0.1-0.1,0.1-0.1c0.5-0.8,2.1-1.5,4.5-2c0.3-0.1,0.6-0.1,0.9-0.2     c0.4-0.1,0.7-0.1,1-0.1c0,0,0.1,0,0.2,0c0.3,0,0.6-0.1,0.9-0.1c0.3,0,0.7-0.1,1-0.1c0.4,0,0.7-0.1,1-0.1l2.4-0.1c0.4,0,0.7,0,1,0     c7.3,0,13.1,1.4,13.1,3.2c0,0.2,0,15.9,0,34.2L53.5,54.6L40.4,41.6z"
   id="path4" />
			<path
   class="st1"
   d="M53.5,4.6c8.1,0,12.6,1.6,12.6,2.7c0,0,0,0,0,0v34L53.5,53.9L40.9,41.3v-34c0,0,0,0,0,0l0,0c0,0,0,0,0,0l0,0     c0,0,0-0.1,0-0.1c0,0,0,0,0-0.1c0.2-0.2,0.9-1.1,4.2-1.8c0,0,0,0,0.1,0c0.3-0.1,0.6-0.1,0.8-0.2l0.1,0C46.5,5.1,46.8,5,47,5     c0,0,0.1,0,0.2,0c0.3,0,0.6-0.1,0.9-0.1c0,0,0,0,0,0c0.3,0,0.7-0.1,1-0.1l0,0c0,0,0,0,0,0c0.3,0,0.6-0.1,1-0.1l0.1,0     c0.2,0,0.4,0,0.6,0l0.4,0c0.1,0,0.1,0,0.2,0c0.3,0,0.7,0,1,0l0.1,0C52.8,4.6,53.2,4.6,53.5,4.6 M53.5,3.6c-0.3,0-0.7,0-1.1,0     c0,0-0.1,0-0.1,0c-0.3,0-0.7,0-1,0c-0.1,0-0.1,0-0.2,0c-0.3,0-0.7,0-1,0c0,0-0.1,0-0.1,0c-0.3,0-0.7,0-1,0.1c0,0,0,0,0,0     c-0.3,0-0.7,0.1-1,0.1h0c-0.3,0-0.7,0.1-1,0.1c0,0,0,0-0.1,0c-0.3,0-0.6,0.1-0.9,0.1c0,0,0,0-0.1,0c-0.3,0.1-0.6,0.1-0.9,0.2     c0,0,0,0,0,0c-2.4,0.5-4.2,1.2-4.9,2.2c0,0-0.1,0.1-0.1,0.2c0,0,0,0,0,0c0,0.1,0,0.1,0,0.2c0,0,0,0,0,0c0,0,0,0.1,0,0.1     c0,0.1,0,0.2,0,0.2c0,7.7,0,20.6,0,34.4l13.6,13.6l13.6-13.6c0-19,0-34.4,0-34.4h0v0C67.1,4.8,60.3,3.6,53.5,3.6L53.5,3.6z"
   id="path6" />
		</g>
		<path
   class="st2"
   d="M45,4.3C45,4.3,45,4.3,45,4.3c0.3-0.1,0.6-0.1,0.9-0.2c0,0,0,0,0.1,0C46.3,4.1,46.6,4,46.9,4c0,0,0,0,0.1,0    c0.3,0,0.7-0.1,1-0.1h0c0.3,0,0.7-0.1,1-0.1c0,0,0,0,0,0c0.3,0,0.7-0.1,1-0.1c0,0,0.1,0,0.1,0c0.3,0,0.6,0,1,0c0.1,0,0.1,0,0.2,0    c0.3,0,0.7,0,1,0c0,0,0.1,0,0.1,0c0.3,0,0.7,0,1.1,0c6.8,0,13.6,1.2,13.6,3.7l2.8-2.8c-0.9-1.4-2.7-2.7-6.1-3.5    c-2.7-0.7-6.4-1-10.2-1C49.6,0,46,0.4,43.3,1c-2.9,0.7-4.7,1.8-5.7,3l2.6,2.6C40.8,5.6,42.6,4.8,45,4.3z"
   id="path10" />
		<path
   class="st3"
   d="M67.1,7.3L67.1,7.3c0,0,0,15.4,0,34.4l3.6-3.6V7.3c0-0.9-0.2-1.8-0.8-2.8L67.1,7.3L67.1,7.3z"
   id="path12" />
		<path
   class="st4"
   d="M39.9,7.3c0-0.1,0-0.1,0-0.2c0,0,0-0.1,0-0.1c0,0,0,0,0,0c0-0.1,0-0.1,0-0.2c0,0,0,0,0,0    c0-0.1,0.1-0.1,0.1-0.2L37.6,4c-1,1.1-1.3,2.3-1.3,3.3v30.8l3.6,3.6C39.9,27.9,39.9,15.1,39.9,7.3z"
   id="path14" />
	</g>
	<g
   id="Down">
		<g
   id="g21">
			<path
   class="st0"
   d="M17.2,51.2c-7.1,0-12.7-1.3-13-3.1c0,0,0-0.1,0-0.1c0-0.1,0-15.4,0-34.2L17.2,0.7l13.1,13.1V48     c0,0,0,0.1,0,0.2C29.9,49.9,24.3,51.2,17.2,51.2z"
   id="path17" />
			<path
   class="st1"
   d="M17.2,1.4L29.7,14v34c0,0,0,0,0,0.1c-0.2,1.1-4.7,2.7-12.6,2.7c-7.9,0-12.4-1.5-12.6-2.7c0,0,0-0.1,0-0.1V14     L17.2,1.4 M17.2,0L3.6,13.6c0,19,0,34.4,0,34.4l0,0c0,0.1,0,0.2,0,0.2c0.4,2.3,7,3.5,13.5,3.5c6.6,0,13.1-1.2,13.5-3.5     c0-0.1,0-0.2,0-0.2c0-7.7,0-20.6,0-34.4L17.2,0L17.2,0z"
   id="path19" />
		</g>
		<path
   class="st5"
   d="M30.7,48l2.8,2.8c0.6-0.9,0.8-1.9,0.8-2.8V17.2l-3.6-3.6C30.7,27.4,30.7,40.2,30.7,48z"
   id="path23" />
		<path
   class="st6"
   d="M30.7,48.2c-0.4,2.3-7,3.5-13.5,3.5S4,50.5,3.6,48.2c0-0.1,0-0.2,0-0.2l-2.8,2.8c0.9,1.4,2.7,2.7,6.2,3.5    c2.7,0.7,6.3,1,10.2,1c3.8,0,7.4-0.4,10.2-1c3.4-0.8,5.2-2.2,6.1-3.5L30.7,48C30.7,48.1,30.7,48.1,30.7,48.2z"
   id="path25" />
		<path
   class="st3"
   d="M3.6,48L3.6,48c0,0,0-15.4,0-34.4L0,17.2V48v0.8l0.1,0.2c0.1,0.5,0.3,1.1,0.7,1.7L3.6,48L3.6,48z"
   id="path27" />
	</g>
</g>
<g
   id="g58">
	<g
   id="Right">
		<g
   id="g36">
			<path
   class="st0"
   d="M13.8,87.6L0.7,74.5l13.1-13.1H48c1.8,0,3.2,5.7,3.2,13.1S49.8,87.6,48,87.6L13.8,87.6L13.8,87.6z"
   id="path32" />
			<path
   class="st1"
   d="M48,61.9c1.1,0,2.7,4.8,2.7,12.6c0,7.8-1.6,12.6-2.7,12.6H14L1.4,74.5L14,61.9H48 M48,60.9     c-7.8,0-20.6,0-34.4,0L0,74.5l13.6,13.6c19,0,34.4,0,34.4,0l0,0C53,88.1,53,60.9,48,60.9L48,60.9z"
   id="path34" />
		</g>
		<path
   class="st7"
   d="M48,60.9l2.8-2.8c-0.9-0.6-1.9-0.8-2.8-0.8H17.2l-3.6,3.6C27.4,60.9,40.2,60.9,48,60.9z"
   id="path38" />
		<path
   class="st6"
   d="M48,88.1L48,88.1c0,0-15.5,0-34.4,0l3.6,3.6H48h1.5l0.3-0.3c0.3-0.1,0.6-0.3,0.9-0.5L48,88.1L48,88.1z"
   id="path40" />
		<path
   class="st5"
   d="M50.7,58.2L48,60.9c5,0,5,27.1,0,27.1l2.8,2.8c1.4-0.9,2.7-2.7,3.5-6.1c0.7-2.7,1-6.4,1-10.2    c0-3.8-0.4-7.4-1-10.2C53.4,60.9,52.1,59.1,50.7,58.2z"
   id="path42" />
	</g>
	<g
   id="left">
		<g
   id="g49">
			<path
   class="st0"
   d="M7.3,123.9c-1.8,0-3.2-5.7-3.2-13.1s1.4-13.1,3.2-13.1h34.2l13.1,13.1l-13.1,13.1L7.3,123.9L7.3,123.9z"
   id="path45" />
			<path
   class="st1"
   d="M41.3,98.3l12.6,12.6l-12.6,12.6h-34c-1.1,0-2.7-4.8-2.7-12.6s1.6-12.6,2.7-12.6L41.3,98.3 M41.8,97.3     c-19,0-34.4,0-34.4,0h0c-5,0-5,27.1,0,27.1c7.8,0,20.6,0,34.4,0l13.6-13.6L41.8,97.3L41.8,97.3z"
   id="path47" />
		</g>
		<path
   class="st2"
   d="M41.8,97.3l-3.6-3.6H7.3c-0.9,0-1.8,0.2-2.8,0.8l2.8,2.8C7.3,97.3,22.8,97.3,41.8,97.3z"
   id="path51" />
		<path
   class="st4"
   d="M7.3,97.3L7.3,97.3l-2.8-2.8c-1.4,0.9-2.7,2.7-3.5,6.1c-0.7,2.7-1,6.4-1,10.2c0,3.8,0.4,7.4,1,10.2    c0.8,3.4,2.2,5.2,3.5,6.1l2.8-2.8C2.3,124.4,2.3,97.3,7.3,97.3z"
   id="path53" />
		<path
   class="st8"
   d="M7.3,124.4l-2.8,2.8c1,0.6,1.9,0.8,2.8,0.8h30.8l3.6-3.6C27.9,124.4,15.1,124.4,7.3,124.4z"
   id="path55" />
	</g>
</g>
</svg>
